<?xml version="1.0" encoding="utf-8"?>
<!-- Generator: Adobe Illustrator 16.0.3, SVG Export Plug-In . SVG Version: 6.00 Build 0)  -->
<!DOCTYPE svg PUBLIC "-//W3C//DTD SVG 1.1//EN" "http://www.w3.org/Graphics/SVG/1.1/DTD/svg11.dtd">
<svg version="1.1" id="Capa_1" xmlns="http://www.w3.org/2000/svg" xmlns:xlink="http://www.w3.org/1999/xlink" x="0px" y="0px"
	 width="1024px" height="1024px" viewBox="0 0 1024 1024" enable-background="new 0 0 1024 1024" xml:space="preserve">
<path fill="#FFFFFF" d="M250.833,487.091l-16.768,5.631l2.002-3.779l-9.485-11.537c-0.384-0.033-0.78-0.087-1.188-0.163
	c-0.409-0.075-0.831-0.154-1.264-0.238l0.726,8.91l5.631,4.98l-21.172-2.377l3.528-2.502l3.654-27.379l-7.909-3.429l19.221-2.202
	c1.468-0.184,2.728-0.313,3.779-0.388c1.051-0.075,1.985-0.112,2.803-0.112c5.072,0,8.917,1.039,11.537,3.116
	c2.619,2.077,3.929,5.135,3.929,9.172c0,3.354-1.118,6.085-3.354,8.196c-2.236,2.111-5.556,3.566-9.96,4.367L250.833,487.091z
	 M224.429,469.672c0.551,0.3,1.126,0.538,1.727,0.713s1.151,0.263,1.652,0.263c0.701,0,1.322-0.392,1.864-1.176
	c0.542-0.784,0.813-1.677,0.813-2.678c0-1.234-0.409-2.319-1.227-3.253c-0.817-0.934-2.102-1.777-3.854-2.528L224.429,469.672z"/>
<path fill="#FFFFFF" d="M291.876,473.777l-2.252,16.542l-41.219-1.802l10.836-3.779l-3.854-27.479l-6.982-2.703l39.217-2.678
	l2.453,11.487l-4.08-4.204l-12.063,0.05l-1.827,7.633l8.609-2.002l2.553-3.929l0.976,17.318l-2.728-4.304l-7.633-1.026l-3.028,8.134
	l14.365,1.802L291.876,473.777z"/>
<path fill="#FFFFFF" d="M337.149,467.67l-3.704,3.529l1.501,13.014c-2.77,2.052-5.64,3.583-8.609,4.593
	c-2.97,1.009-6.082,1.514-9.335,1.514c-2.653,0-5.223-0.384-7.708-1.151c-2.486-0.768-4.772-1.885-6.857-3.354
	c-2.737-1.952-4.847-4.284-6.332-6.995c-1.485-2.711-2.228-5.593-2.228-8.646c0-2.853,0.664-5.46,1.99-7.821
	c1.327-2.36,3.241-4.35,5.744-5.969c2.336-1.518,4.926-2.657,7.771-3.416c2.844-0.759,5.944-1.139,9.297-1.139
	c2.486,0,4.843,0.296,7.07,0.888c2.228,0.593,4.25,1.456,6.069,2.59l1.227-3.378l1.952,13.589c-2.152-2.569-4.334-4.458-6.544-5.668
	c-2.211-1.209-4.576-1.814-7.095-1.814c-3.404,0-6.144,1.126-8.221,3.378c-2.077,2.252-3.116,5.239-3.116,8.96
	c0,3.303,0.959,5.985,2.878,8.046c1.918,2.061,4.413,3.091,7.483,3.091c0.066,0,0.275-0.013,0.625-0.038
	c0.351-0.025,0.651-0.046,0.901-0.063l2.202-7.283l-5.281,0.601l-1.626,3.078l-0.676-15.316l2.578,3.579L337.149,467.67z"/>
<path fill="#FFFFFF" d="M383.173,483.763l-21.823,6.757l5.581-7.483l-1.577-5.531l-8.108,0.625l-2.353,6.457l3.529,2.753
	l-23.725,1.702l5.781-4.304l7.684-29.882l-4.355-2.828l29.432,0.976l-6.857,2.453l12.038,26.878L383.173,483.763z M362.977,469.397
	l-3.479-9.986l-3.379,12.313L362.977,469.397z"/>
<path fill="#FFFFFF" d="M417.26,491.396l-3.278-3.854l-33.811,1.852l4.605-3.229l1.226-28.505l-6.807-2.027l24.451-2.678
	l-6.407,4.655l4.254,23.024l8.959-4.555l2.878-6.607L417.26,491.396z"/>
<path fill="#FFFFFF" d="M435.003,484.939c0,1.101-0.701,2.085-2.102,2.953s-3.07,1.301-5.005,1.301c-1.969,0-3.65-0.429-5.043-1.289
	c-1.393-0.859-2.09-1.848-2.09-2.965c0-1.084,0.688-2.031,2.065-2.841c1.376-0.809,3.066-1.214,5.068-1.214
	c1.985,0,3.667,0.409,5.043,1.227C434.315,482.929,435.003,483.871,435.003,484.939z"/>
<path fill="#FF0000" d="M484.406,483.763l-21.823,6.757l5.581-7.483l-1.577-5.531l-8.108,0.625l-2.353,6.457l3.529,2.753
	l-23.725,1.702l5.781-4.304l7.684-29.882l-4.355-2.828l29.432,0.976l-6.857,2.453l12.038,26.878L484.406,483.763z M464.209,469.397
	l-3.479-9.986l-3.379,12.313L464.209,469.397z"/>
<path fill="#FF0000" d="M523.473,487.091l-16.768,5.631l2.002-3.779l-9.485-11.537c-0.384-0.033-0.78-0.087-1.188-0.163
	c-0.409-0.075-0.831-0.154-1.264-0.238l0.726,8.91l5.631,4.98l-21.172-2.377l3.528-2.502l3.654-27.379l-7.909-3.429l19.221-2.202
	c1.468-0.184,2.728-0.313,3.779-0.388c1.051-0.075,1.985-0.112,2.803-0.112c5.072,0,8.917,1.039,11.537,3.116
	c2.619,2.077,3.929,5.135,3.929,9.172c0,3.354-1.117,6.085-3.354,8.196c-2.235,2.111-5.556,3.566-9.96,4.367L523.473,487.091z
	 M497.069,469.672c0.551,0.3,1.126,0.538,1.727,0.713s1.151,0.263,1.652,0.263c0.701,0,1.322-0.392,1.864-1.176
	c0.542-0.784,0.813-1.677,0.813-2.678c0-1.234-0.409-2.319-1.227-3.253c-0.817-0.934-2.102-1.777-3.854-2.528L497.069,469.672z"/>
</svg>
