<?xml version="1.0" encoding="UTF-8"?>
<svg width="18px" height="18px" viewBox="0 0 18 18" version="1.1" xmlns="http://www.w3.org/2000/svg" xmlns:xlink="http://www.w3.org/1999/xlink">
    <!-- Generator: sketchtool 51.2 (57519) - http://www.bohemiancoding.com/sketch -->
    <title>B6D355C0-2B21-4D0A-90FA-47FD609F079C</title>
    <desc>Created with sketchtool.</desc>
    <defs></defs>
    <g id="Welcome" stroke="none" stroke-width="1" fill="none" fill-rule="evenodd">
        <g id="Desktop-HD" transform="translate(-1062.000000, -116.000000)" fill="#D00019">
            <g id="Search" transform="translate(465.000000, 106.000000)">
                <path d="M615,26.7274 L613.7274,28 L609.9087,24.1822 L611.1813,22.9087 L615,26.7274 Z M604.2,22.6 C601.2228,22.6 598.8,20.1781 598.8,17.2 C598.8,14.2228 601.2228,11.8 604.2,11.8 C607.1772,11.8 609.6,14.2228 609.6,17.2 C609.6,20.1781 607.1772,22.6 604.2,22.6 L604.2,22.6 Z M604.2,10 C600.2238,10 597,13.2238 597,17.2 C597,21.1762 600.2238,24.4 604.2,24.4 C608.1762,24.4 611.4,21.1762 611.4,17.2 C611.4,13.2238 608.1762,10 604.2,10 L604.2,10 Z" id="search"></path>
            </g>
        </g>
    </g>
</svg>